<?xml version="1.0" standalone="no"?>
<!DOCTYPE svg PUBLIC "-//W3C//DTD SVG 20010904//EN"
 "http://www.w3.org/TR/2001/REC-SVG-20010904/DTD/svg10.dtd">
<svg version="1.0" xmlns="http://www.w3.org/2000/svg"
 width="500.000000pt" height="500.000000pt" viewBox="0 0 500.000000 500.000000"
 preserveAspectRatio="xMidYMid meet">

<g transform="translate(0.000000,500.000000) scale(0.100000,-0.100000)"
fill="#000000" stroke="none">
<path d="M2415 4076 c-69 -22 -119 -53 -162 -99 -49 -53 -66 -84 -83 -154 -11
-42 -19 -54 -43 -64 -73 -31 -90 -93 -33 -128 18 -12 40 -21 48 -21 11 0 15
-15 17 -62 1 -35 10 -81 20 -103 17 -38 17 -43 -1 -102 -18 -60 -20 -62 -56
-68 -91 -14 -221 -48 -267 -70 -60 -29 -102 -70 -149 -148 -38 -64 -62 -173
-52 -236 4 -25 -4 -76 -24 -153 -16 -64 -36 -166 -44 -227 -19 -133 -22 -481
-5 -530 6 -18 10 -33 8 -35 -2 -2 -34 -6 -71 -9 -63 -6 -68 -5 -68 13 0 17 7
20 45 20 25 0 45 5 45 10 0 6 -13 37 -30 70 -36 71 -36 70 -9 70 22 0 21 17
-8 73 -12 24 -12 27 2 27 8 0 15 2 15 5 0 12 -69 130 -78 133 -6 2 -27 -27
-48 -63 -28 -51 -34 -69 -24 -75 10 -6 10 -16 -4 -49 -20 -51 -20 -59 -2 -63
12 -2 9 -17 -14 -70 l-29 -68 49 0 c45 0 50 -2 50 -23 0 -21 -8 -24 -97 -40
-117 -21 -133 -21 -133 -3 0 14 29 26 68 26 26 0 25 15 -9 82 -23 45 -23 48
-4 48 19 0 19 11 -2 56 -14 28 -15 38 -6 41 9 3 6 18 -11 52 -30 58 -49 77
-62 59 -25 -35 -55 -99 -49 -108 3 -5 -1 -23 -10 -39 -19 -38 -19 -61 0 -61
11 0 8 -14 -15 -64 -15 -35 -26 -67 -23 -70 4 -3 26 -6 50 -6 39 0 43 -2 43
-24 0 -22 -7 -26 -69 -40 -78 -18 -191 -58 -298 -106 l-73 -33 0 -82 c0 -373
236 -718 585 -855 204 -79 121 -74 1164 -77 1039 -4 1029 -5 1204 62 108 41
152 64 227 118 159 114 284 283 349 471 25 70 33 115 41 220 5 72 5 135 1 139
-27 28 -267 116 -413 152 -60 15 -68 20 -68 41 0 22 4 24 55 24 30 0 55 3 55
6 0 3 -16 42 -35 85 -19 44 -35 82 -35 84 0 3 9 5 20 5 11 0 20 4 20 8 0 30
-88 242 -100 242 -12 0 -112 -239 -105 -250 3 -6 13 -10 21 -10 18 0 18 -3 -7
-52 -12 -23 -27 -58 -35 -80 l-13 -38 59 0 c53 0 60 -2 60 -20 0 -24 3 -24
-85 -6 -38 8 -91 17 -117 21 -39 5 -48 10 -48 26 0 16 7 19 45 19 27 0 45 5
45 11 0 6 -13 38 -30 70 -28 55 -29 59 -10 59 25 0 25 11 -1 62 -17 33 -18 42
-7 49 10 7 6 22 -21 74 -18 36 -39 65 -46 65 -7 0 -27 -29 -44 -65 -25 -51
-30 -69 -21 -80 9 -10 8 -21 -4 -44 -20 -38 -20 -59 -1 -63 13 -3 13 -8 -4
-41 -11 -21 -24 -51 -30 -68 l-10 -29 50 0 c40 0 49 -3 49 -18 0 -16 -7 -16
-95 -8 -82 8 -95 12 -89 25 48 111 33 215 -40 296 -29 31 -36 46 -31 65 3 14
8 75 11 135 5 95 10 118 35 169 16 33 29 69 29 81 0 12 10 41 22 66 25 52 35
137 19 168 -10 18 -7 30 23 81 46 78 51 101 32 138 -11 22 -24 31 -53 35 -50
9 -231 -2 -265 -15 -28 -10 -81 -75 -113 -139 l-18 -33 -22 45 c-30 58 -118
140 -177 165 -27 10 -48 23 -48 27 0 4 10 27 22 50 16 31 88 246 88 262 0 1
18 5 41 9 116 19 138 77 59 159 -23 23 -28 40 -32 95 -11 140 -115 282 -232
316 -64 19 -165 20 -221 2z m145 -82 c35 -30 65 -84 91 -164 l18 -55 0 66 c1
51 -5 77 -24 114 -13 27 -23 50 -22 51 1 1 12 -2 25 -7 46 -17 88 -162 79
-275 l-5 -74 48 0 c41 0 54 -5 75 -27 14 -15 25 -31 25 -34 0 -13 -122 -21
-198 -14 -117 11 -439 73 -501 97 -23 8 -24 11 -9 19 11 6 44 2 100 -11 93
-23 313 -39 288 -21 -12 9 -11 11 7 11 12 0 24 4 27 8 2 4 -53 15 -122 25 -70
9 -149 23 -177 30 -49 12 -50 13 -47 47 6 70 66 156 134 191 67 34 133 18 186
-47 18 -21 32 -35 32 -30 0 21 -45 79 -78 101 -36 25 -36 25 -10 25 15 0 41
-12 58 -26z m237 -234 c5 -55 4 -57 -19 -62 l-25 -5 1 105 1 104 19 -43 c10
-23 21 -68 23 -99z m-509 -212 c6 -18 23 -46 36 -63 23 -28 25 -29 31 -10 4
11 12 34 20 51 l13 31 104 -18 c56 -10 133 -21 171 -25 37 -4 67 -10 67 -14 0
-4 -18 -60 -40 -125 -45 -134 -79 -194 -113 -197 -81 -5 -147 23 -208 89 -39
43 -41 44 -35 17 9 -38 54 -102 84 -122 14 -9 46 -23 72 -32 l48 -16 -18 -40
c-9 -21 -33 -56 -52 -78 l-34 -38 -37 46 -38 46 -60 -40 c-32 -23 -59 -37 -59
-33 0 4 -9 57 -20 117 l-20 109 36 91 c20 50 40 96 45 102 6 7 3 17 -7 25 -25
20 -44 73 -44 119 0 35 3 40 23 40 17 0 26 -9 35 -32z m-163 -370 c11 -53 55
-307 61 -355 4 -29 12 -57 19 -63 8 -7 84 -9 211 -8 l199 3 12 25 c7 14 25 87
40 163 19 94 32 137 41 137 8 0 33 -14 56 -30 42 -31 116 -141 118 -177 1 -16
-102 -215 -122 -236 -4 -5 -18 33 -31 82 -13 50 -27 91 -30 91 -4 0 -10 -11
-13 -24 -3 -14 -29 -90 -57 -170 -34 -96 -57 -147 -67 -150 -10 -3 -94 -8
-189 -12 l-171 -6 -16 53 c-32 106 -107 287 -128 305 l-20 19 7 -45 c7 -44 85
-324 105 -375 l10 -26 157 7 156 7 -6 -39 c-3 -21 -2 -70 3 -109 5 -38 7 -71
5 -74 -11 -10 -192 -42 -277 -47 -92 -7 -99 -6 -153 21 -44 21 -64 39 -91 81
-112 175 -224 532 -211 673 10 118 66 198 171 247 56 26 64 22 65 -39 1 -46
50 -231 65 -246 12 -11 16 -11 24 5 7 13 4 58 -9 144 -26 176 -26 178 14 183
17 2 35 5 39 5 4 1 10 -8 13 -20z m505 -80 c-1 -13 -7 -47 -14 -77 l-12 -55
-22 36 c-12 20 -20 42 -18 49 2 8 7 26 10 42 5 20 12 27 31 27 19 0 25 -5 25
-22z m546 -53 c4 -10 20 -15 44 -15 21 0 43 7 50 15 16 19 60 20 60 1 0 -7
-19 -45 -42 -84 l-43 -70 -60 -7 c-54 -6 -63 -11 -101 -52 -47 -51 -80 -115
-70 -135 14 -28 32 -57 45 -72 15 -18 72 -21 103 -5 11 6 22 8 25 6 9 -9 -91
-48 -138 -54 -45 -5 -47 -4 -57 25 -12 36 -48 50 -82 32 -12 -6 -40 -28 -63
-48 -52 -47 -47 -35 66 155 51 87 108 185 126 218 18 33 43 70 54 83 24 25 75
30 83 7z m-791 -115 c21 -22 44 -40 49 -40 6 0 29 19 53 42 23 23 44 40 46 37
2 -2 18 -23 36 -46 20 -26 31 -51 29 -65 -3 -23 -4 -23 -200 -26 -186 -2 -198
-1 -198 16 0 15 121 119 140 121 3 1 24 -17 45 -39z m895 -122 c0 -18 -15 -62
-33 -98 -35 -71 -51 -79 -124 -65 -44 8 -35 21 22 29 72 11 64 26 -15 26 -53
0 -71 3 -68 13 3 7 33 15 77 19 85 7 105 18 35 18 -48 0 -84 13 -72 25 4 4 34
9 67 12 76 7 91 23 22 23 -28 0 -51 4 -51 9 0 11 33 17 98 20 41 1 42 0 42
-31z m-355 -269 c-14 -18 -25 -33 -23 -34 2 -2 46 1 98 7 67 7 112 18 153 37
31 15 57 25 57 21 0 -12 -55 -57 -97 -80 -51 -28 -50 -37 2 -16 21 9 39 16 42
16 13 0 -15 -25 -55 -51 -51 -32 -49 -37 5 -14 32 13 34 13 23 0 -7 -8 -32
-24 -56 -35 -47 -20 -61 -36 -18 -19 45 16 37 3 -17 -32 -85 -54 -306 -108
-324 -79 -4 7 -10 41 -13 76 -4 57 -3 64 13 64 10 0 52 37 94 82 85 92 134
128 139 103 2 -8 -8 -29 -23 -46z m-1121 -233 c9 -21 16 -40 16 -42 0 -1 -24
-10 -53 -18 -30 -9 -65 -25 -80 -36 -14 -11 -28 -20 -33 -20 -15 0 18 307 42
382 4 13 19 -21 48 -104 24 -68 51 -140 60 -162z m928 192 c7 -17 -16 -28 -59
-28 l-22 0 21 50 21 51 17 -28 c9 -16 19 -35 22 -45z m-88 -170 c3 -40 9 -85
12 -99 5 -24 3 -27 -33 -33 -21 -4 -48 -10 -59 -12 -18 -5 -23 1 -33 40 -6 25
-11 70 -11 100 0 64 12 75 76 76 l41 0 7 -72z m511 0 c-15 -74 -71 -118 -145
-117 -25 0 -54 4 -64 8 -16 6 -8 12 37 30 31 13 82 43 114 67 32 24 59 44 61
44 2 0 1 -15 -3 -32z m-1245 -181 c58 -66 127 -98 224 -106 90 -8 95 -10 381
-182 77 -46 154 -91 170 -100 17 -9 64 -36 105 -60 l75 -44 -327 -3 -327 -2
-148 81 c-139 76 -252 149 -291 187 -46 46 -50 46 -41 -3 5 -24 16 -59 25 -76
l16 -31 -36 27 c-44 34 -86 116 -86 169 1 103 81 184 184 185 33 1 44 -5 76
-42z m1285 0 c42 -57 51 -161 17 -223 -21 -40 -112 -112 -199 -160 l-87 -47
-90 47 c-117 62 -246 138 -246 146 0 3 26 21 58 40 136 80 230 148 187 136
-47 -13 -126 -25 -210 -30 l-90 -5 65 20 c36 11 115 37 177 56 96 31 116 34
144 24 49 -17 138 -13 184 8 55 26 60 26 90 -12z m-1160 -576 c5 -24 15 -33
51 -45 44 -15 47 -14 75 6 l30 22 46 -47 47 -46 -22 -30 c-21 -29 -21 -31 -5
-66 15 -31 21 -35 55 -35 l38 0 0 -70 0 -70 -35 0 c-28 0 -37 -5 -50 -29 -14
-28 -13 -31 10 -59 14 -17 25 -33 25 -37 0 -13 -64 -85 -75 -85 -7 0 -23 15
-36 34 -13 19 -46 60 -73 91 -46 52 -48 57 -33 72 15 16 18 15 41 -6 24 -22
24 -23 35 -3 18 34 24 98 12 135 -16 49 -74 102 -126 117 -133 37 -247 -74
-221 -214 14 -74 106 -140 186 -135 44 4 76 -20 127 -93 30 -44 28 -49 -41
-70 -36 -11 -39 -11 -58 15 -26 36 -65 37 -74 2 -3 -14 -7 -25 -8 -25 -1 0
-26 7 -55 16 -50 15 -52 16 -46 44 5 23 2 32 -19 45 -19 13 -29 14 -46 5 -26
-14 -35 -8 -71 48 l-29 47 21 16 c15 11 19 22 14 37 -5 18 -14 22 -46 22 l-39
0 0 -124 c0 -100 -3 -128 -16 -140 -18 -19 -85 -21 -102 -4 -8 8 -12 63 -12
183 l0 170 -22 -35 c-12 -19 -42 -75 -67 -124 -26 -49 -52 -91 -58 -93 -6 -2
-42 54 -79 124 l-69 128 -3 -169 c-1 -104 -7 -175 -13 -183 -7 -7 -29 -13 -50
-13 -70 0 -69 -4 -69 323 0 161 4 297 8 304 14 22 59 33 91 22 24 -8 42 -34
102 -149 41 -77 76 -140 79 -140 3 0 38 63 78 139 66 128 76 141 109 151 31
11 39 10 62 -7 24 -19 26 -26 31 -124 4 -75 9 -104 18 -103 6 1 23 2 36 3 17
1 27 10 35 33 10 27 8 35 -9 53 -11 12 -20 25 -20 30 0 4 18 27 39 50 37 40
41 42 61 28 18 -13 25 -13 58 0 30 12 38 21 42 48 5 33 7 34 60 39 67 7 67 7
75 -29z m662 -32 c34 -13 80 -55 99 -91 29 -56 13 -162 -30 -197 -14 -12 -12
-16 13 -40 40 -38 55 -98 41 -164 -14 -68 -31 -92 -83 -119 -36 -19 -61 -23
-179 -26 -135 -4 -136 -4 -152 20 -14 21 -16 64 -14 304 1 153 5 289 10 302 7
21 12 22 137 22 71 0 142 -5 158 -11z m573 -24 c3 -16 3 -43 0 -60 l-6 -30
-124 -5 -125 -5 -3 -57 -3 -58 105 0 c117 0 126 -5 126 -70 0 -65 -9 -70 -126
-70 l-105 0 3 -62 3 -63 119 -2 c70 -1 123 -6 130 -13 15 -15 13 -84 -3 -104
-11 -14 -39 -16 -183 -16 -98 0 -178 4 -189 10 -18 10 -19 24 -19 319 0 169 3
311 7 315 4 3 92 5 197 4 l191 -3 5 -30z m406 16 c130 -59 161 -244 55 -332
l-38 -33 63 -98 c67 -103 77 -140 45 -158 -25 -13 -77 -13 -101 0 -10 6 -44
52 -74 103 -76 129 -77 130 -109 122 l-27 -7 0 -102 c0 -66 -4 -106 -12 -114
-7 -7 -31 -12 -54 -12 -74 0 -74 2 -74 328 0 176 4 291 10 303 10 17 22 19
143 19 107 0 140 -4 173 -19z"/>
<path d="M2530 1360 l0 -60 48 0 c56 0 82 20 82 63 0 40 -25 57 -81 57 l-49 0
0 -60z"/>
<path d="M2553 1163 c-21 -4 -23 -10 -23 -69 l0 -64 55 0 c64 0 95 22 95 68 0
35 -9 48 -43 61 -29 11 -44 12 -84 4z"/>
<path d="M3497 1413 c-4 -3 -7 -37 -7 -75 l0 -68 51 0 c76 0 109 21 109 73 0
46 -40 77 -98 77 -27 0 -52 -3 -55 -7z"/>
</g>
</svg>
